# xmcd CD database file
#
# Track frame offsets:
#	150
#	18280
#	36042
#	53153
#	75768
#	93477
#	102902
#	119105
#	134475
#	140265
#	164025
#
# Disc length: 2579 seconds
#
# Revision: 2
# Processed by: cddbd v1.5.2PL0 Copyright (c) Steve Scherf et al.
# Submitted via: CDex 1.70beta2
#
DISCID=8e0a110b
DTITLE=Left To Vanish - Versus The Throne
DYEAR=2008
DGENRE=Metal
TTITLE0=Give Us Barabas
TTITLE1=Seventeenth Year Cicadas
TTITLE2=Long Live the Heresy
TTITLE3=Dirt Merchant
TTITLE4=Lufthansa Heist
TTITLE5=Whitewolf and Nash
TTITLE6=Eyeless in Gaza
TTITLE7=Suffrage Under a Sulfure Sky
TTITLE8=February 16th 1969
TTITLE9=Northern Lights
TTITLE10=Falling in Love in a Whorehouse
EXTD=YEAR: 2008
EXTT0=
EXTT1=
EXTT2=
EXTT3=
EXTT4=
EXTT5=
EXTT6=
EXTT7=
EXTT8=
EXTT9=
EXTT10=
PLAYORDER=
